<svg id="Layer_1" height="512" viewBox="0 0 512 512" width="512" xmlns="http://www.w3.org/2000/svg" data-name="Layer 1"><path d="m256 6.95c-73.623 0-133.52 70.017-133.52 156.08 0 35.79 10.072 69.451 29.127 97.346 17.665 25.86 42.122 44.622 69.261 53.263l-1.046 45.715c-.594 22.984-5.659 44.317-15.056 63.408a57.108 57.108 0 0 0 48.634 82.232q1.317.058 2.624.058a57.12 57.12 0 0 0 51.551-81.577 157.383 157.383 0 0 1 -15.391-63.943l-1.056-45.9c27.119-8.635 51.558-27.374 69.222-53.206 19.081-27.9 29.166-61.584 29.166-97.4.004-86.059-59.893-156.076-133.516-156.076zm40.739 421.672a45.092 45.092 0 1 1 -85.677 22.991 45.386 45.386 0 0 1 4.471-23.553c10.167-20.656 15.646-43.667 16.285-68.413l.982-42.895a115.718 115.718 0 0 0 46.4 0l.992 43.072a169.3 169.3 0 0 0 16.547 68.798zm53.71-174.965c-17.063 24.952-40.9 42.633-67.127 49.784a104.335 104.335 0 0 1 -54.757-.028c-26.2-7.175-50.011-24.863-67.049-49.806-17.434-25.522-27.036-57.69-27.036-90.577 0-79.446 54.514-144.08 121.52-144.08s121.52 64.634 121.52 144.08c0 32.911-9.614 65.096-27.071 90.627z"/><path d="m256 41.14a93.431 93.431 0 0 0 -53.937 17.46 6 6 0 1 0 6.91 9.811 81.493 81.493 0 0 1 47.027-15.271c50.988 0 92.47 49.3 92.47 109.89s-41.482 109.88-92.47 109.88-92.47-49.292-92.47-109.88c0-28.571 9.2-55.644 25.9-76.232a6 6 0 0 0 -9.32-7.559c-18.428 22.719-28.577 52.476-28.577 83.791 0 67.205 46.865 121.88 104.47 121.88s104.47-54.675 104.47-121.88-46.868-121.89-104.473-121.89z"/><path d="m277.488 108.066-28.1 28.09a6 6 0 0 0 8.484 8.488l28.1-28.09a6 6 0 1 0 -8.484-8.488z"/><path d="m302.128 113-47.81 47.8a6 6 0 1 0 8.484 8.486l47.81-47.8a6 6 0 1 0 -8.484-8.486z"/><path d="m278.958 165.727a6 6 0 1 0 8.484 8.486l28.1-28.09a6 6 0 1 0 -8.484-8.486z"/><path d="m256 435.95a19.535 19.535 0 1 0 19.54 19.53 19.557 19.557 0 0 0 -19.54-19.53zm0 27.07a7.535 7.535 0 1 1 7.54-7.54 7.548 7.548 0 0 1 -7.54 7.54z"/></svg>