<?xml version="1.0" encoding="iso-8859-1"?>
<!-- Generator: Adobe Illustrator 19.0.0, SVG Export Plug-In . SVG Version: 6.00 Build 0)  -->
<svg version="1.1" id="Capa_1" xmlns="http://www.w3.org/2000/svg" xmlns:xlink="http://www.w3.org/1999/xlink" x="0px" y="0px"
	 viewBox="0 0 512 512" style="enable-background:new 0 0 512 512;" xml:space="preserve">
<g transform="translate(-1)">
	<g>
		<g>
			<path d="M383.344,231.729l-0.009-0.009c-18.44-16.355-41.986-25.803-66.616-26.729v-42.858c-0.018-5.116-2.344-9.95-6.329-13.157
				l44.054-68.027l11.775-15.742c1.065-1.464,1.631-3.232,1.613-5.042c0.008-0.152,0.087-0.28,0.087-0.433l-0.027-0.132
				c-0.012-0.214-0.098-0.412-0.127-0.625c-0.218-2.403-1.468-4.592-3.425-6.003L314.236,2.517c-1.601-1.612-3.779-2.518-6.05-2.517
				h-102.4c-2.271-0.001-4.449,0.905-6.05,2.517l-50.105,50.456c-1.957,1.411-3.207,3.601-3.425,6.003
				c-0.028,0.213-0.114,0.411-0.127,0.626l-0.027,0.132c0,0.154,0.08,0.282,0.087,0.433c-0.018,1.81,0.548,3.578,1.613,5.042
				l11.446,15.271l44.381,68.499c-3.985,3.207-6.309,8.041-6.327,13.155v42.858c-33.715,1.268-64.831,18.448-83.865,46.304
				c-19.035,27.856-23.733,63.088-12.664,94.958l43.458,125.554c8.335,24.052,30.991,40.183,56.446,40.192h112.717
				c25.455-0.009,48.111-16.14,56.446-40.192l43.458-125.554C427.43,305.547,415.617,260.306,383.344,231.729z M340.448,71.196
				l-47.862,73.871h-22.352l34.912-76.8h37.49L340.448,71.196z M299.653,162.133V204.8h-85.333v-42.667H299.653z M304.636,17.067
				L338.568,51.2h-33.64l-17.067-34.133H304.636z M245.194,17.067h11.792h11.792L285.844,51.2h-57.717L245.194,17.067z
				 M286.399,68.267l-29.413,64.706l-29.413-64.706H286.399z M209.336,17.067h16.775L209.044,51.2H175.4L209.336,17.067z
				 M173.194,70.725l-1.839-2.458h37.47l34.912,76.8h-22.354L173.194,70.725z M353.665,466.225
				c-5.956,17.179-22.139,28.701-40.321,28.709H200.627c-18.182-0.008-34.364-11.53-40.321-28.708l-13.256-38.299
				c34.778-21.274,77.817-24.001,115.002-7.289c28.707,12.439,59.699,18.73,90.983,18.471c3.508,0,6.83-0.109,10.098-0.239
				L353.665,466.225z M397.123,340.671l-27.956,80.768c-34.228,2.723-68.606-2.902-100.181-16.393
				c-41.094-18.546-88.608-16.145-127.622,6.451l-24.515-70.827c-11.91-34.193-1.983-72.192,25.129-96.191
				c16.381-14.574,37.545-22.621,59.471-22.612h111.075c28.957,0.003,56.124,14.01,72.92,37.597S406.592,313.306,397.123,340.671z"
				/>
			<path d="M376.666,286.983c-2.944-0.81-6.096,0.014-8.266,2.161c-2.17,2.148-3.027,5.291-2.247,8.243
				c2.76,10.597,2.314,21.774-1.283,32.117l-21.729,62.779c-1.542,4.453,0.818,9.312,5.271,10.854s9.312-0.818,10.854-5.271
				l21.729-62.779c4.709-13.531,5.289-28.156,1.667-42.017C381.896,290.115,379.61,287.794,376.666,286.983z"/>
			<path d="M357.689,271.731c2.9-0.96,5.066-3.396,5.68-6.389c0.613-2.993-0.419-6.085-2.708-8.109
				c-13.262-11.792-30.391-18.304-48.138-18.3c-4.713,0-8.533,3.82-8.533,8.533s3.82,8.533,8.533,8.533
				c3.372,0,6.737,0.307,10.054,0.917c9.941,1.833,19.19,6.356,26.742,13.075C351.597,272.028,354.789,272.691,357.689,271.731z"/>
		</g>
	</g>
</g>
<g>
</g>
<g>
</g>
<g>
</g>
<g>
</g>
<g>
</g>
<g>
</g>
<g>
</g>
<g>
</g>
<g>
</g>
<g>
</g>
<g>
</g>
<g>
</g>
<g>
</g>
<g>
</g>
<g>
</g>
</svg>
